PathFileType	4	(X/Y/Z)	C:\Users\Basilio\Documents\Thesis Gigler\squatting_fais\c3dfiles\076\SJ_pre4\markers_experimental.trc
DataRate	CameraRate	NumFrames	NumMarkers	Units	OrigDataRate	OrigDataStartFrame	OrigNumFrames
200.000000	200.000000	4	61	mm	200.000000	932	1864
Frame#	Time	FHD			LBHD			RBHD			C7			T10			CLAV			LSHO			LUUPA			LMUPA			LDUPA			LLEP			LMEP			LRAD			LUL			LRFIN			RSHO			RUPA1			RMUPA			RDUPA			RLEP			RMEP			RRAD			RUL			RUFIN			LASI			RASI			USACR			LSACR			RSACR			LTHI1			LTHI2			LTHI3			LTHI4			LLFC			LMFC			LTIB1			LTIB2			LTIB3			LTIB4			LLMAL			LMMAL			LHEE			LMT1			LMT2			LMT5			RTHI			RTHI2			RTHI3			RTHI4			RLFC			RMFC			RTIB1			RTIB2			RTIB3			RTIB4			RLMAL			RMMAL			RHEE			RMT1			RMT2			RMT5			
		X1	Y1	Z1	X2	Y2	Z2	X3	Y3	Z3	X4	Y4	Z4	X5	Y5	Z5	X6	Y6	Z6	X7	Y7	Z7	X8	Y8	Z8	X9	Y9	Z9	X10	Y10	Z10	X11	Y11	Z11	X12	Y12	Z12	X13	Y13	Z13	X14	Y14	Z14	X15	Y15	Z15	X16	Y16	Z16	X17	Y17	Z17	X18	Y18	Z18	X19	Y19	Z19	X20	Y20	Z20	X21	Y21	Z21	X22	Y22	Z22	X23	Y23	Z23	X24	Y24	Z24	X25	Y25	Z25	X26	Y26	Z26	X27	Y27	Z27	X28	Y28	Z28	X29	Y29	Z29	X30	Y30	Z30	X31	Y31	Z31	X32	Y32	Z32	X33	Y33	Z33	X34	Y34	Z34	X35	Y35	Z35	X36	Y36	Z36	X37	Y37	Z37	X38	Y38	Z38	X39	Y39	Z39	X40	Y40	Z40	X41	Y41	Z41	X42	Y42	Z42	X43	Y43	Z43	X44	Y44	Z44	X45	Y45	Z45	X46	Y46	Z46	X47	Y47	Z47	X48	Y48	Z48	X49	Y49	Z49	X50	Y50	Z50	X51	Y51	Z51	X52	Y52	Z52	X53	Y53	Z53	X54	Y54	Z54	X55	Y55	Z55	X56	Y56	Z56	X57	Y57	Z57	X58	Y58	Z58	X59	Y59	Z59	X60	Y60	Z60	X61	Y61	Z61	

933	4.66	67.09078979492189	1098.334838867188	-886.6840820312502	-84.42386627197267	1066.154174804688	-986.8302001953127	-72.19143676757814	1065.067626953125	-835.3931884765627	-153.078369140625	1017.301452636719	-915.706481933594	-419.4962463378907	856.6843872070315	-933.9280395507815	-100.3267440795899	870.8061523437502	-911.9321289062502	-106.724838256836	924.9656982421877	-1079.151245117188	-202.3843841552735	835.5134277343752	-1226.088623046875	-232.0691528320313	799.5220947265627	-1215.511474609375	-245.8250122070313	806.5899658203127	-1273.087280273438	-290.1107482910157	789.7083129882815	-1309.525634765625	-345.3697509765626	857.0428466796877	-1297.009521484375	-460.4776000976564	737.3886108398439	-1143.949340820313	-449.6384582519532	675.8634033203126	-1163.963623046875	-421.951873779297	723.1593017578126	-1095.281616210938	-135.213363647461	923.7342529296877	-751.8621215820314	-257.6995239257813	867.3527832031252	-610.5981445312501	-272.2471923828126	818.9473266601565	-613.8835449218751	-308.0876464843751	838.438415527344	-569.1015625000001	-362.9553833007813	793.1065673828127	-549.2802124023439	-420.423553466797	849.3024902343752	-589.0811157226564	-486.3814392089845	711.1945800781251	-741.3306884765626	-437.4436645507814	698.5827636718751	-765.7552490234376	-469.2402954101564	651.2780151367189	-712.8959350585939	-421.4995727539064	643.6780395507814	-1041.045654296875	-429.9178161621095	626.5004882812501	-845.353210449219	-515.1793823242189	785.2133789062502	-936.662780761719	-540.9279785156251	770.621520996094	-967.0137939453127	-544.4978637695314	766.3979492187501	-909.786071777344	-462.1278381347657	607.4312744140626	-1148.677490234375	-381.0934448242188	585.4143066406251	-1146.262329101563	-353.9768066406251	614.1087646484376	-1117.177734375	-357.3626098632813	529.3726196289064	-1154.612426757813	-240.3919372558594	424.7269592285157	-1141.514892578125	-229.9949951171876	421.9730834960939	-1033.034301757813	-237.4617614746094	288.0783081054688	-1063.53515625	-272.6146240234376	237.3710327148438	-1128.774169921875	-249.0083923339844	235.2115631103516	-1089.435791015625	-297.1918945312501	174.7976379394532	-1056.1787109375	-386.2248840332032	77.48793029785158	-1115.683471679688	-365.9806518554688	88.34436035156251	-1029.692260742188	-449.5901184082032	42.64854049682618	-1068.901123046875	-237.9812774658204	53.88089752197267	-1049.579956054688	-232.9290924072266	54.710750579834	-1088.1728515625	-250.6567077636719	43.6092872619629	-1139.183227539063	-410.175994873047	537.9008178710939	-723.7362060546876	-341.8767700195313	537.9888916015626	-713.3903198242189	-322.5531311035157	564.0801391601564	-727.2359008789064	-296.5984802246094	465.4197082519532	-715.8157958984376	-254.5552062988282	431.621063232422	-716.3838500976564	-228.5437011718751	430.7224121093751	-819.5567626953127	-226.1009368896485	297.7163391113282	-735.7241210937501	-321.5898132324219	244.2250671386719	-718.1920166015626	-278.5316772460938	228.6647949218751	-730.8284912109376	-281.2684936523438	184.6507720947266	-769.4734497070315	-387.3392028808595	76.9939651489258	-747.8466796875001	-360.5794372558594	89.62125396728517	-829.5620727539065	-444.235565185547	50.23651504516603	-799.9207153320315	-235.2858123779297	52.19845199584962	-799.486755371094	-235.5703582763672	56.59449386596681	-754.3800048828126	-265.7999877929688	35.80395126342774	-702.9208374023439	
934	4.665	67.88420867919923	1097.004272460938	-886.601257324219	-83.6691360473633	1065.374877929688	-985.6828613281252	-71.46710205078126	1063.980590820313	-835.3676757812502	-152.2409362792969	1016.35302734375	-915.6447753906252	-419.2770996093751	856.6625976562502	-933.9417724609377	-99.9964294433594	869.6118164062502	-911.922790527344	-105.9673233032227	923.950622558594	-1079.022216796875	-201.9062805175782	834.6997680664065	-1225.921142578125	-231.7545928955079	798.880310058594	-1215.529174804688	-245.7449340820313	806.0708007812502	-1273.244140625	-289.7571716308594	789.2673339843752	-1309.46875	-344.9284362792969	856.6685180664065	-1297.054809570313	-460.5084533691407	737.2573852539064	-1144.060791015625	-449.6577148437501	675.7349853515626	-1164.044311523438	-423.0999145507814	723.5436401367189	-1095.539184570313	-134.6608428955078	922.8193359375002	-751.9191894531251	-257.3700866699219	866.6281738281252	-610.5476684570314	-271.9798278808594	818.343933105469	-613.9201049804689	-307.7980651855469	837.921813964844	-569.1029663085939	-362.7460327148438	792.808044433594	-549.2514648437501	-420.1531677246095	848.9880371093752	-589.1574096679689	-486.3724060058595	711.0025634765626	-741.3247070312501	-437.475799560547	698.3789672851564	-765.7495727539064	-469.2726440429689	651.0743408203126	-712.9663085937501	-421.5061340332032	644.0268554687501	-1041.460083007813	-429.8329467773439	626.4218750000001	-845.813659667969	-515.2979736328126	785.235778808594	-936.7038574218752	-541.0922241210939	770.634948730469	-967.1599121093752	-544.5970458984376	766.3018798828126	-909.8903808593752	-462.1338195800782	607.2388305664064	-1148.786865234375	-381.0590209960938	585.2106323242189	-1146.366333007813	-353.8471069335938	613.8983764648439	-1117.339721679688	-357.1632385253907	529.1497802734376	-1154.585693359375	-240.1586456298829	424.499969482422	-1141.566650390625	-229.7934265136719	421.8677978515626	-1033.168823242188	-237.1167755126954	288.2033996582032	-1063.519775390625	-272.5585632324219	237.2254180908204	-1128.79248046875	-249.0419921875001	235.0422973632813	-1089.509521484375	-297.1372985839844	174.7523803710938	-1056.1904296875	-386.2109985351564	77.45996093750001	-1115.731323242188	-365.9497985839844	88.41573333740236	-1029.7099609375	-449.5378417968751	42.62422561645509	-1068.907592773438	-238.0255279541016	53.84203338623048	-1049.556762695313	-232.9930267333985	54.69378662109376	-1088.208618164063	-250.6869354248047	43.60972595214844	-1139.196411132813	-410.019744873047	537.7256469726564	-723.6712646484376	-341.7495727539063	537.8478393554689	-713.2917480468751	-322.4569396972657	563.9266357421876	-727.2119750976564	-295.9409790039063	465.9608459472657	-715.5763549804689	-254.4045715332032	431.5286254882814	-716.2393798828126	-228.2717742919922	430.6606750488282	-819.4131469726565	-225.9071807861329	297.6228027343751	-735.6296386718751	-321.5077514648438	244.1712951660157	-718.0936279296876	-278.4305114746094	228.6177215576172	-730.7512817382814	-281.1888122558594	184.6161499023438	-769.429626464844	-387.3227844238282	76.99149322509767	-747.8318481445314	-360.4703674316407	89.62134552001955	-829.5629882812502	-444.2266235351564	50.24525070190431	-799.963806152344	-235.6984252929688	52.486873626709	-799.7625732421877	-235.605941772461	56.59447097778322	-754.4172363281251	-265.8015747070313	35.82434844970704	-702.9059448242189	
935	4.67	68.6403045654297	1095.521728515625	-886.6789550781252	-82.66019439697267	1063.84716796875	-986.8145141601565	-70.84304046630861	1062.657836914063	-835.4297485351565	-151.4862213134766	1015.286987304688	-915.7722167968752	-419.088348388672	856.586853027344	-933.8710937500002	-99.58821868896487	868.4593505859377	-911.9075317382815	-105.764389038086	923.0935058593752	-1079.099853515625	-201.4314575195313	834.0579223632815	-1225.969360351563	-231.4922485351563	798.4678344726565	-1215.4990234375	-245.6634063720704	805.434753417969	-1273.263061523438	-288.8891601562501	788.7130126953127	-1309.098754882813	-344.4963989257813	856.3566894531252	-1296.95458984375	-460.4384155273439	737.0424194335939	-1144.172729492188	-449.6159667968751	675.5267944335939	-1164.059936523438	-422.3913574218751	723.4197387695314	-1095.470825195313	-134.0641479492188	921.7102050781252	-751.8966674804689	-257.0364990234376	865.9499511718752	-610.5358276367189	-271.6916503906251	817.7046508789065	-613.9211425781251	-307.5038452148438	837.4517211914065	-569.1478271484376	-362.5494689941407	792.4700317382815	-549.2974853515626	-419.8387451171876	848.746520996094	-589.1683959960939	-486.2990112304689	710.8559570312501	-741.3413085937501	-437.5527954101564	698.1436157226564	-765.7644042968751	-469.3322143554689	650.9497680664064	-712.9484252929689	-421.7430114746095	644.0745239257814	-1041.82861328125	-429.9998474121095	626.0697631835939	-846.2273559570315	-515.5142211914064	785.056091308594	-936.7476806640627	-541.2517700195314	770.5538330078127	-967.2106933593752	-544.7249755859376	766.1063232421876	-909.9758911132815	-461.8824462890626	606.9458618164064	-1148.76953125	-380.9182434082032	584.9281616210939	-1146.564086914063	-353.6802978515626	613.7877197265626	-1117.556884765625	-356.8643493652344	528.9210205078126	-1154.830810546875	-239.9184265136719	424.3588256835939	-1141.715576171875	-229.6171417236329	421.7782592773439	-1033.310180664063	-237.2881164550782	287.9788513183594	-1063.758422851563	-272.7436523437501	237.2423400878907	-1129.03955078125	-248.8349151611329	235.0207977294922	-1089.584228515625	-297.1240844726563	174.7403564453125	-1056.248901367188	-386.2619934082032	77.49037933349611	-1115.773071289063	-365.9781494140626	88.40440368652345	-1029.730590820313	-449.5252990722657	42.62398910522462	-1068.870971679688	-238.0118255615235	53.87039947509767	-1049.55126953125	-232.9770050048829	54.73373413085939	-1088.202758789063	-250.642807006836	43.5599479675293	-1139.204833984375	-409.9272460937501	537.4927978515626	-723.6197509765626	-341.6981506347657	537.7156372070314	-713.2155761718751	-322.4178161621094	563.7249145507814	-727.1539916992189	-295.9837951660157	465.5311889648439	-715.4988403320314	-254.222885131836	431.4637145996095	-716.0392456054689	-228.1870422363282	430.592010498047	-819.1953735351565	-225.7637786865235	297.5829467773438	-735.5247802734376	-321.3368835449219	244.1073913574219	-717.9885253906251	-278.4295959472657	228.4072265625001	-730.9100952148439	-281.1489257812501	184.6150512695313	-769.3338623046877	-387.3269653320314	76.95994567871095	-747.7958374023439	-360.5168151855469	89.65649414062501	-829.5244140625002	-444.2483825683595	50.24084472656251	-799.945739746094	-235.6858520507813	52.51745223999025	-799.741149902344	-235.5923461914063	56.58841705322267	-754.3864746093751	-265.8168334960938	35.78897857666016	-702.9337158203126	
936	4.675	69.54956817626955	1093.963989257813	-886.6109619140627	-81.92445373535158	1062.616943359375	-985.930847167969	-69.84542083740236	1061.429443359375	-835.2366333007815	-150.6266174316407	1014.392150878906	-915.7378540039065	-418.7992553710939	856.601501464844	-933.881286621094	-99.1702575683594	867.3073730468752	-911.9046020507815	-105.1982955932617	921.948425292969	-1078.998779296875	-201.3386840820313	833.2019042968752	-1225.986450195313	-231.1354217529297	797.830017089844	-1215.441284179688	-245.4979095458985	804.6907348632815	-1273.1298828125	-288.7013244628907	788.090270996094	-1309.150634765625	-344.1263732910157	855.9550781250002	-1297.145751953125	-460.2259826660157	736.8455200195314	-1144.349853515625	-449.549041748047	675.3261108398439	-1164.165649414063	-422.3718872070314	723.0304565429689	-1095.721801757813	-133.4709014892578	920.654724121094	-751.8602905273439	-256.6169433593751	865.3420410156252	-610.6427612304689	-271.4665527343751	817.1016235351565	-613.9060668945314	-307.2618408203126	836.9091796875002	-569.1581420898439	-362.4323425292969	792.0219726562502	-549.3421020507814	-419.695037841797	848.358825683594	-589.1898803710939	-486.2949523925782	710.6180419921876	-741.3347778320314	-437.5839843750001	697.9155883789064	-765.7405395507814	-469.3982849121095	650.7714843750001	-712.9785766601564	-421.5910949707032	643.9028320312501	-1041.461547851563	-429.8284606933595	626.4201049804689	-845.8240966796877	-515.6553955078126	784.9829101562502	-936.7695922851565	-541.4323730468751	770.2752685546877	-967.1792602539065	-544.8808593750001	765.9884033203126	-910.0009765625002	-461.7361450195314	606.6304931640626	-1148.84521484375	-380.8685607910157	584.7457275390626	-1146.70751953125	-353.5707092285157	613.6289672851564	-1117.775756835938	-356.7262268066407	528.7396240234376	-1155.063720703125	-239.7195587158204	424.2820129394532	-1141.850463867188	-229.4499053955079	421.6751708984376	-1033.419799804688	-237.6906127929688	287.5435180664063	-1063.969604492188	-272.5523681640626	237.0367279052735	-1129.305908203125	-248.8105926513672	234.9220275878907	-1089.73291015625	-297.0728759765626	174.7085571289063	-1056.288208007813	-386.2273864746095	77.48857879638673	-1115.79296875	-365.9424438476563	88.43164825439455	-1029.759155273438	-449.5384216308595	42.64192962646485	-1068.89990234375	-238.0093231201172	53.83897399902345	-1049.581420898438	-232.9473419189454	54.74108886718751	-1088.211669921875	-250.6960754394532	43.59758377075196	-1139.216796875	-409.8229064941407	537.2553710937501	-723.5956420898439	-341.6424865722657	537.4974365234376	-713.1684570312501	-322.3210449218751	563.5480957031251	-727.0803833007814	-295.8395385742188	465.3777770996095	-715.4685058593751	-254.0926513671876	431.3172607421876	-715.9578247070314	-229.4775085449219	430.8453063964845	-818.9201660156252	-225.708480834961	297.5115661621094	-735.4436035156251	-321.3196105957032	244.0648651123047	-717.9598999023439	-278.3317871093751	228.3977355957032	-730.8986206054689	-281.1242065429688	184.5824432373047	-769.2901000976565	-387.3191223144532	76.96043395996095	-747.8159790039064	-360.5322875976563	89.66893005371095	-829.5187988281252	-444.1786499023439	50.26801681518556	-799.9302978515627	-235.3152618408204	52.24129486083986	-799.4830322265627	-235.6003570556641	56.60361099243165	-754.3455810546876	-265.7901306152344	35.84032440185548	-702.8898925781251	
